# xmcd
#
# Track frame offsets:
# 150
# 450
# 38221
# 65495
# 86358
# 116085
# 150313
# 175130
# 194764
# 224081
# 246309
# 276857
# 299759
#
# Disc length: 4455 seconds
#
# Revision: 0
# Processed by: cddbd v1.5.2PL0 Copyright (c) Steve Scherf et al.
# Submitted via: Audion 3.0.2 (http://www.panic.com/audion/)
#
DISCID=c311650d
DTITLE=bola - bola
DYEAR=1900
DGENRE=
TTITLE0=bola
TTITLE1=bola
TTITLE2=bola
TTITLE3=bola
TTITLE4=bola
TTITLE5=bola
TTITLE6=bola
TTITLE7=bola
TTITLE8=bola
TTITLE9=bola
TTITLE10=bola
TTITLE11=bola
TTITLE12=bola
EXTD=
EXTT0=
EXTT1=
EXTT2=
EXTT3=
EXTT4=
EXTT5=
EXTT6=
EXTT7=
EXTT8=
EXTT9=
EXTT10=
EXTT11=
EXTT12=
PLAYORDER=
